<svg xmlns="http://www.w3.org/2000/svg" xmlns:xlink="http://www.w3.org/1999/xlink" width="48" height="48" viewBox="0 0 48 48">
  <defs>
    <clipPath id="clip-path">
      <rect id="Rectangle_299" data-name="Rectangle 299" width="48" height="48" transform="translate(829 314)" fill="#fff" stroke="#707070" stroke-width="1"/>
    </clipPath>
  </defs>
  <g id="approve_icon" transform="translate(-829 -314)" clip-path="url(#clip-path)">
    <g id="success" transform="translate(829 314)">
      <g id="Group_125" data-name="Group 125">
        <g id="Group_124" data-name="Group 124">
          <path id="Path_158" data-name="Path 158" d="M47.023,13.98a3.454,3.454,0,0,0-4.879-.066L16.728,38.652,5.889,27.813a3.45,3.45,0,1,0-4.88,4.879L14.255,45.938c.037.037.076.072.118.109l.012.011c.039.036.078.071.118.1s.085.067.128.1l.026.019c.042.032.084.063.126.091s.093.059.14.086l.025.015c.044.027.088.053.133.076s.1.05.15.073l.025.012c.045.021.09.042.133.06s.11.042.166.061l.021.007c.043.016.087.031.133.045s.122.033.183.047l.016,0H15.9c.044.012.088.022.131.03.086.017.16.026.215.033.039.006.078.011.116.015.111.011.223.016.333.016s.218-.005.327-.016c.036,0,.073-.008.111-.014.055-.007.129-.016.215-.033.041-.008.083-.018.129-.029l.009,0c.061-.014.122-.028.182-.046.044-.013.088-.028.134-.045l.017-.006c.054-.018.108-.037.163-.059s.088-.038.132-.058l.024-.011c.05-.022.1-.045.149-.071s.086-.047.129-.073l.025-.014c.047-.027.093-.054.14-.084s.082-.056.122-.086l.024-.018c.044-.031.088-.064.131-.1s.076-.064.113-.1l.014-.012c.04-.034.079-.069.117-.106L46.956,18.859a3.452,3.452,0,0,0,.067-4.879Z" fill="#30c146"/>
        </g>
      </g>
      <g id="Group_127" data-name="Group 127" opacity="0.417">
        <g id="Group_126" data-name="Group 126">
          <path id="Path_159" data-name="Path 159" d="M18.4,20.035a8.608,8.608,0,0,1-3.41-3.41,1.642,1.642,0,0,0-1.44-.853h0a1.643,1.643,0,0,0-1.44.852,8.608,8.608,0,0,1-3.41,3.41,1.643,1.643,0,0,0,0,2.88,8.608,8.608,0,0,1,3.41,3.41,1.643,1.643,0,0,0,2.88,0,8.608,8.608,0,0,1,3.41-3.41,1.643,1.643,0,0,0,0-2.88Z" fill="#30c146"/>
        </g>
      </g>
      <g id="Group_129" data-name="Group 129">
        <g id="Group_128" data-name="Group 128">
          <path id="Path_160" data-name="Path 160" d="M32.467,13.753a8.609,8.609,0,0,1-3.41-3.41,1.642,1.642,0,0,0-1.44-.852h0a1.642,1.642,0,0,0-1.44.852,8.608,8.608,0,0,1-3.411,3.41,1.643,1.643,0,0,0,0,2.88,8.608,8.608,0,0,1,3.41,3.41,1.642,1.642,0,0,0,1.44.853h0a1.642,1.642,0,0,0,1.44-.852,8.609,8.609,0,0,1,3.41-3.41,1.643,1.643,0,0,0,0-2.88Z" fill="#30c146"/>
        </g>
      </g>
      <g id="Group_131" data-name="Group 131">
        <g id="Group_130" data-name="Group 130">
          <path id="Path_161" data-name="Path 161" d="M21.215,5.314A8.608,8.608,0,0,1,17.8,1.9a1.642,1.642,0,0,0-1.44-.853h0a1.643,1.643,0,0,0-1.44.852,8.608,8.608,0,0,1-3.41,3.41,1.643,1.643,0,0,0,0,2.88,8.608,8.608,0,0,1,3.41,3.41,1.643,1.643,0,0,0,2.88,0,8.608,8.608,0,0,1,3.41-3.41,1.643,1.643,0,0,0,0-2.88Z" fill="#30c146"/>
        </g>
      </g>
    </g>
  </g>
</svg>
