<svg xmlns="http://www.w3.org/2000/svg" xmlns:xlink="http://www.w3.org/1999/xlink" width="48" height="48" viewBox="0 0 48 48">
  <defs>
    <clipPath id="clip-path">
      <rect id="Rectangle_379" data-name="Rectangle 379" width="48" height="48" transform="translate(446 280)" fill="#b7b7b7"/>
    </clipPath>
    <linearGradient id="linear-gradient" x1="0.748" y1="0.719" x2="0.937" y2="0.882" gradientUnits="objectBoundingBox">
      <stop offset="0" stop-color="#97aaaa"/>
      <stop offset="1" stop-color="#e8efee"/>
    </linearGradient>
    <linearGradient id="linear-gradient-2" x1="0.453" y1="0.661" x2="0.453" y2="-0.004" gradientUnits="objectBoundingBox">
      <stop offset="0" stop-color="#e8e8e8"/>
      <stop offset="1" stop-color="#e8efee"/>
    </linearGradient>
    <linearGradient id="linear-gradient-3" x1="0.453" y1="-8.142" x2="0.453" y2="-8.828" gradientUnits="objectBoundingBox">
      <stop offset="0" stop-color="#c2cece" stop-opacity="0"/>
      <stop offset="0.179" stop-color="#afbcbc" stop-opacity="0.18"/>
      <stop offset="1" stop-color="#5b6a6a"/>
    </linearGradient>
    <linearGradient id="linear-gradient-4" x1="0.7" y1="0.454" x2="2.059" y2="0.383" xlink:href="#linear-gradient-3"/>
    <linearGradient id="linear-gradient-5" x1="1.033" y1="1.057" x2="-0.582" y2="2.03" xlink:href="#linear-gradient-3"/>
    <linearGradient id="linear-gradient-6" x1="0.45" y1="0.585" x2="-0.489" y2="1.26" xlink:href="#linear-gradient-3"/>
    <linearGradient id="linear-gradient-7" x1="0.398" y1="1.823" x2="0.398" y2="0.944" gradientUnits="objectBoundingBox">
      <stop offset="0" stop-color="#ffcf95"/>
      <stop offset="0.427" stop-color="#ffc954"/>
      <stop offset="1" stop-color="#ffc200"/>
    </linearGradient>
    <linearGradient id="linear-gradient-8" x1="0.129" y1="2.778" x2="0.717" y2="2.778" gradientUnits="objectBoundingBox">
      <stop offset="0" stop-color="#ffc200" stop-opacity="0"/>
      <stop offset="0.203" stop-color="#fb0" stop-opacity="0.204"/>
      <stop offset="0.499" stop-color="#ffa700" stop-opacity="0.498"/>
      <stop offset="0.852" stop-color="#f80" stop-opacity="0.851"/>
      <stop offset="1" stop-color="#ff7800"/>
    </linearGradient>
    <linearGradient id="linear-gradient-9" x1="0.512" y1="1.528" x2="1.003" y2="1.528" xlink:href="#linear-gradient-8"/>
    <linearGradient id="linear-gradient-10" x1="-0.383" y1="1.841" x2="0.346" y2="1.841" xlink:href="#linear-gradient-8"/>
    <linearGradient id="linear-gradient-11" x1="0.96" y1="11.343" x2="-1.725" y2="10.714" xlink:href="#linear-gradient-8"/>
    <linearGradient id="linear-gradient-12" x1="-0.039" y1="2.752" x2="0.329" y2="3.159" gradientUnits="objectBoundingBox">
      <stop offset="0" stop-color="#fff"/>
      <stop offset="1" stop-color="#e8efee"/>
    </linearGradient>
  </defs>
  <g id="attach_document" data-name="attach document" transform="translate(-446 -280)" clip-path="url(#clip-path)">
    <g id="attach" transform="translate(451.087 280)">
      <path id="Path_867" data-name="Path 867" d="M41.853,5.828V44.616a2.512,2.512,0,0,1-2.511,2.511H6.539a2.512,2.512,0,0,1-2.511-2.511V5.828A2.512,2.512,0,0,1,6.539,3.317h32.8A2.512,2.512,0,0,1,41.853,5.828Z" transform="translate(-4.027 0.873)" fill="url(#linear-gradient)"/>
      <path id="Path_868" data-name="Path 868" d="M29.211,3.317H6.539A2.511,2.511,0,0,0,4.027,5.828V44.616a2.511,2.511,0,0,0,2.511,2.511h32.8a2.511,2.511,0,0,0,2.511-2.511V15.3a1.463,1.463,0,0,0-.421-1.027l-9.8-9.942A3.4,3.4,0,0,0,29.211,3.317Z" transform="translate(-4.027 0.873)" fill="url(#linear-gradient-2)"/>
      <path id="Path_869" data-name="Path 869" d="M41.853,34.422v2.009a2.512,2.512,0,0,1-2.511,2.511H6.539a2.512,2.512,0,0,1-2.511-2.511V34.422H41.853Z" transform="translate(-4.027 9.058)" fill="url(#linear-gradient-3)"/>
      <g id="Group_2447" data-name="Group 2447" transform="translate(6.426 19.531)">
        <rect id="Rectangle_375" data-name="Rectangle 375" width="24.973" height="1.71" fill="#c2cece"/>
        <rect id="Rectangle_376" data-name="Rectangle 376" width="24.973" height="1.71" transform="translate(0 6.53)" fill="#c2cece"/>
        <rect id="Rectangle_377" data-name="Rectangle 377" width="24.973" height="1.71" transform="translate(0 13.059)" fill="#c2cece"/>
        <rect id="Rectangle_378" data-name="Rectangle 378" width="15.064" height="1.71" transform="translate(0 19.588)" fill="#c2cece"/>
      </g>
      <path id="Path_870" data-name="Path 870" d="M22.94,3.317H6.28A2.393,2.393,0,0,0,4.027,5.828V44.616A2.392,2.392,0,0,0,6.28,47.127H22.94Z" transform="translate(-4.027 0.873)" fill="url(#linear-gradient-4)"/>
      <path id="Path_872" data-name="Path 872" d="M25.407,4.823V12.19a2.5,2.5,0,0,0,.827,1.859l10.39,10.39V14.551L26.464,4.39A3.329,3.329,0,0,0,23.9,3.317S25.407,4.789,25.407,4.823Z" transform="translate(1.202 0.873)" fill="url(#linear-gradient-5)"/>
      <path id="Path_873" data-name="Path 873" d="M12.475,6.426V18.279a5.373,5.373,0,0,0,1.775,3.991L38.928,46.949a2.51,2.51,0,0,0,1.586-2.333V21.391L22.439,3.317H9.115Z" transform="translate(-2.689 0.873)" fill="url(#linear-gradient-6)"/>
      <path id="Path_874" data-name="Path 874" d="M23.248,7.441V19.057a5.465,5.465,0,0,1-5.479,5.481,5.393,5.393,0,0,1-5.294-5.386V6.744a3.352,3.352,0,0,1,6.7,0v8.518a1.2,1.2,0,0,1-1.2,1.2h0a1.2,1.2,0,0,1-1.2-1.2V6.778a.98.98,0,0,0-.892-.989.959.959,0,0,0-1.023.955v12.34a3.048,3.048,0,0,0,3.045,3.06,3,3,0,0,0,2.94-2.992V7.441a5.048,5.048,0,0,0-8.908-3.251H9.115a6.867,6.867,0,0,1,.34-.625A7.441,7.441,0,0,1,23.248,7.441Z" transform="translate(-2.689)" fill="url(#linear-gradient-7)"/>
      <path id="Path_875" data-name="Path 875" d="M15.522,3.483a3.346,3.346,0,0,1,1.185,2.554v8.518a1.2,1.2,0,0,1-.6,1.036,1.2,1.2,0,0,0,1.8-1.036V6.037a3.352,3.352,0,0,0-3.95-3.3A3.338,3.338,0,0,1,15.522,3.483Z" transform="translate(-1.415 0.707)" fill="url(#linear-gradient-8)"/>
      <path id="Path_876" data-name="Path 876" d="M21.23,4.189A7.45,7.45,0,0,0,14.538,0c-.2,0-.4.009-.6.024a7.441,7.441,0,0,1,6.843,7.416V19.057a5.485,5.485,0,0,1-4.8,5.447c.17.019.343.031.517.034a5.465,5.465,0,0,0,5.479-5.481V7.441A7.4,7.4,0,0,0,21.23,4.189Z" transform="translate(-1.419)" fill="url(#linear-gradient-9)"/>
      <path id="Path_877" data-name="Path 877" d="M13.919,17.879V5.538a.955.955,0,0,1,.355-.742.922.922,0,0,0-.528-.213.959.959,0,0,0-1.023.955v12.34a3.048,3.048,0,0,0,3.045,3.06,3,3,0,0,0,.553-.062A3.073,3.073,0,0,1,13.919,17.879Z" transform="translate(-1.739 1.205)" fill="url(#linear-gradient-10)"/>
      <path id="Path_878" data-name="Path 878" d="M15.807,0A7.4,7.4,0,0,0,9.455,3.565a6.9,6.9,0,0,0-.34.625h2.831a5.008,5.008,0,0,1,3.861-1.8c.056,0,.112,0,.168,0V0C15.919,0,15.864,0,15.807,0Z" transform="translate(-2.689)" fill="url(#linear-gradient-11)"/>
      <path id="Path_879" data-name="Path 879" d="M36.495,14.7a1.546,1.546,0,0,0-.366-.5c-.108-.108-9.664-9.809-9.664-9.809A3.6,3.6,0,0,0,23.9,3.317h0a1.507,1.507,0,0,1,1.507,1.507v7.366A2.511,2.511,0,0,0,27.918,14.7h8.577Z" transform="translate(1.202 0.873)" fill="url(#linear-gradient-12)"/>
    </g>
  </g>
</svg>
