<svg xmlns="http://www.w3.org/2000/svg" xmlns:xlink="http://www.w3.org/1999/xlink" width="44" height="44" viewBox="0 0 44 44">
  <defs>
    <clipPath id="clip-path">
      <rect id="Rectangle_280" data-name="Rectangle 280" width="44" height="44" transform="translate(0.463 -0.343)" fill="#fff" stroke="#707070" stroke-width="1"/>
    </clipPath>
  </defs>
  <g id="black_diamond" data-name="black diamond" transform="translate(-0.463 0.343)" clip-path="url(#clip-path)">
    <g id="diamond" transform="translate(0.507 3.183)">
      <path id="Path_141" data-name="Path 141" d="M11.5,17.329H1.3a1.3,1.3,0,0,1-1.2-.816,1.352,1.352,0,0,1,.273-1.445L10.71,4.339a1.282,1.282,0,0,1,.924-.4h5.1a1.291,1.291,0,0,1,1.1.63A1.356,1.356,0,0,1,17.9,5.865l-5.233,10.73A1.3,1.3,0,0,1,11.5,17.329Z" transform="translate(0 -3.943)" fill="#4b4b4b"/>
      <path id="Path_142" data-name="Path 142" d="M45.036,17.329H34.83a1.3,1.3,0,0,1-1.161-.735L28.436,5.865a1.356,1.356,0,0,1,.057-1.292,1.291,1.291,0,0,1,1.1-.63h5.1a1.283,1.283,0,0,1,.924.4L45.96,15.068a1.352,1.352,0,0,1,.273,1.445A1.3,1.3,0,0,1,45.036,17.329Z" transform="translate(-2.393 -3.943)" fill="#797979"/>
      <path id="Path_143" data-name="Path 143" d="M10.982,15.966,17.666,3.943H28.132L34.8,15.966Z" transform="translate(-0.929 -3.943)" fill="#bcbcbc"/>
      <path id="Path_144" data-name="Path 144" d="M32.942,16.772,22.694,40.478a1.346,1.346,0,0,0,.489,1.658,1.275,1.275,0,0,0,1.674-.246L45.53,17.68a1.347,1.347,0,0,0,.319-.909H32.942Z" transform="translate(-1.91 -4.748)" fill="#2b2b2b"/>
      <path id="Path_145" data-name="Path 145" d="M12.908,16.772H0a1.347,1.347,0,0,0,.319.909L20.993,41.89a1.275,1.275,0,0,0,1.674.246,1.346,1.346,0,0,0,.489-1.658Z" transform="translate(0 -4.748)" fill="#656565"/>
      <path id="Path_146" data-name="Path 146" d="M10.982,16.772,21.713,41.553a1.285,1.285,0,0,0,2.373,0L34.8,16.772Z" transform="translate(-0.929 -4.748)" fill="#4b4b4b"/>
      <path id="Path_147" data-name="Path 147" d="M23.989,15.966H35.9L29.232,3.943H23.989Z" transform="translate(-2.029 -3.943)" fill="#434343"/>
      <path id="Path_148" data-name="Path 148" d="M24,42.344a1.3,1.3,0,0,0,1.186-.791L35.9,16.772H24Z" transform="translate(-2.03 -4.748)" fill="#797979"/>
    </g>
  </g>
</svg>
