<svg xmlns="http://www.w3.org/2000/svg" xmlns:xlink="http://www.w3.org/1999/xlink" width="28" height="28" viewBox="0 0 28 28">
  <defs>
    <clipPath id="clip-path">
      <rect id="Rectangle_113" data-name="Rectangle 113" width="28" height="28" transform="translate(-0.407 0.124)" fill="#f46929" stroke="#707070" stroke-width="1"/>
    </clipPath>
  </defs>
  <g id="coins" transform="translate(0.407 -0.124)" clip-path="url(#clip-path)">
    <path id="money-bag_2_" data-name="money-bag (2)" d="M22.465,19.139c-3.058,0-5.453-1.677-5.453-3.817s2.4-3.817,5.453-3.817,5.453,1.677,5.453,3.817S25.522,19.139,22.465,19.139Zm0-5.453a4.864,4.864,0,0,0-2.506.633,1.357,1.357,0,0,0-.765,1,1.357,1.357,0,0,0,.765,1,5.281,5.281,0,0,0,5.013,0,1.357,1.357,0,0,0,.765-1,1.357,1.357,0,0,0-.765-1A4.864,4.864,0,0,0,22.465,13.686ZM27.412,26.4a1.091,1.091,0,0,0-1.279-1.766,6.869,6.869,0,0,1-7.445,0A1.091,1.091,0,0,0,17.408,26.4a8.564,8.564,0,0,0,5,1.516A8.564,8.564,0,0,0,27.412,26.4Zm0-4.417a1.091,1.091,0,0,0-1.279-1.766,6.869,6.869,0,0,1-7.445,0,1.091,1.091,0,0,0-1.279,1.766,8.564,8.564,0,0,0,5,1.516A8.564,8.564,0,0,0,27.412,21.985ZM15.1,26.827a1.091,1.091,0,0,0-1.091-1.091H6.543a4.367,4.367,0,0,1-4.362-4.362V17.216A6.815,6.815,0,0,1,4.8,11.83L8.69,8.763a1.091,1.091,0,0,0,.244-1.445L6.221,3.08a.584.584,0,0,1,.492-.9H20.243a.584.584,0,0,1,.494.9L18.053,7.324a1.091,1.091,0,0,0,.237,1.431l1.581,1.275a1.091,1.091,0,0,0,1.369-1.7l-.825-.665,2.164-3.425A2.765,2.765,0,0,0,20.243,0H6.714A2.765,2.765,0,0,0,4.384,4.256L6.564,7.661,3.446,10.116A9.036,9.036,0,0,0,0,17.216v4.159a6.551,6.551,0,0,0,6.543,6.543h7.47A1.091,1.091,0,0,0,15.1,26.827Zm.927-18.921A1.091,1.091,0,0,0,14.94,6.816H12.05A1.091,1.091,0,1,0,12.05,9h2.89A1.091,1.091,0,0,0,16.031,7.906Z" transform="translate(0 0)" fill="#f46929"/>
  </g>
</svg>
