<svg xmlns="http://www.w3.org/2000/svg" xmlns:xlink="http://www.w3.org/1999/xlink" width="20" height="20" viewBox="0 0 20 20">
  <defs>
    <clipPath id="clip-path">
      <rect id="Rectangle_7" data-name="Rectangle 7" width="20" height="20" transform="translate(416 574)" fill="#bcbcbc" stroke="#707070" stroke-width="1"/>
    </clipPath>
  </defs>
  <g id="delete_tag" data-name="delete tag" transform="translate(-416 -574)" clip-path="url(#clip-path)">
    <path id="remove" d="M10,0A10,10,0,1,0,20,10,10.011,10.011,0,0,0,10,0Zm3.683,12.5A.833.833,0,1,1,12.5,13.683l-2.5-2.5-2.5,2.5A.833.833,0,1,1,6.317,12.5l2.5-2.5-2.5-2.5A.833.833,0,0,1,7.5,6.317l2.5,2.5,2.5-2.5A.833.833,0,1,1,13.683,7.5l-2.5,2.5Zm0,0" transform="translate(416 574)" fill="#bcbcbc"/>
  </g>
</svg>
