<svg xmlns="http://www.w3.org/2000/svg" xmlns:xlink="http://www.w3.org/1999/xlink" width="20" height="20" viewBox="0 0 20 20">
  <defs>
    <clipPath id="clip-path">
      <rect id="Rectangle_731" data-name="Rectangle 731" width="20" height="20" transform="translate(18 674)" fill="#fff" stroke="#707070" stroke-width="1"/>
    </clipPath>
  </defs>
  <g id="export_csv" data-name="export csv" transform="translate(-18 -674)" clip-path="url(#clip-path)">
    <g id="export" transform="translate(18 674)">
      <g id="Group_2801" data-name="Group 2801">
        <g id="Group_2800" data-name="Group 2800">
          <path id="Path_1379" data-name="Path 1379" d="M13.75,11.289V16.25H2.5V5H6.25V2.5h-5A1.25,1.25,0,0,0,0,3.75V17.5a1.25,1.25,0,0,0,1.25,1.25H15a1.249,1.249,0,0,0,1.25-1.25V11.289Z"/>
        </g>
      </g>
      <g id="Group_2803" data-name="Group 2803">
        <g id="Group_2802" data-name="Group 2802">
          <path id="Path_1380" data-name="Path 1380" d="M19.75,5.125l-5-3.75a.625.625,0,0,0-1,.5V3.75H11.875A6.882,6.882,0,0,0,5,10.625a.625.625,0,0,0,1.184.28l.148-.294A5.594,5.594,0,0,1,11.363,7.5H13.75V9.375a.625.625,0,0,0,1,.5l5-3.75a.625.625,0,0,0,0-1Z"/>
        </g>
      </g>
    </g>
  </g>
</svg>
