<svg xmlns="http://www.w3.org/2000/svg" xmlns:xlink="http://www.w3.org/1999/xlink" width="20" height="20" viewBox="0 0 20 20">
  <defs>
    <clipPath id="clip-path">
      <rect id="Rectangle_102" data-name="Rectangle 102" width="20" height="20" transform="translate(865 684)" fill="#f46929" stroke="#707070" stroke-width="1"/>
    </clipPath>
  </defs>
  <g id="hide" transform="translate(-865 -684)" clip-path="url(#clip-path)">
    <g id="eye-make-up" transform="translate(867.202 690.646)">
      <path id="Path_59" data-name="Path 59" d="M17.095,14.22a3.9,3.9,0,0,0,.67-1.136.681.681,0,1,0-1.276-.474A3.8,3.8,0,0,1,14.51,14.5a8.953,8.953,0,0,1-3.888.834A8.953,8.953,0,0,1,6.734,14.5,3.8,3.8,0,0,1,4.756,12.61a.681.681,0,1,0-1.276.474,3.906,3.906,0,0,0,.67,1.136L2.555,15.815a.681.681,0,1,0,.963.963L5.155,15.14a7.437,7.437,0,0,0,1.509.821l-.638,2.189a.681.681,0,1,0,1.307.381l.627-2.15a10.9,10.9,0,0,0,1.971.3v2.255a.681.681,0,0,0,1.362,0V16.679a10.908,10.908,0,0,0,1.992-.3l.627,2.15a.681.681,0,0,0,1.307-.381l-.638-2.189a7.437,7.437,0,0,0,1.509-.821l1.637,1.637a.681.681,0,0,0,.963-.963Z" transform="translate(-2.355 -12.166)" fill="#f46929"/>
    </g>
  </g>
</svg>
