<svg id="Iconly_Light_Setting" data-name="Iconly/Light/Setting" xmlns="http://www.w3.org/2000/svg" width="20" height="21" viewBox="0 0 20 21">
  <g id="Setting" transform="translate(0)">
    <path id="Subtraction_1" data-name="Subtraction 1" d="M10.706,21H9.294a2.124,2.124,0,0,1-2.151-2.09,1.946,1.946,0,0,0-.288-1,2.1,2.1,0,0,0-1.3-.972,2.146,2.146,0,0,0-1.62.211,2.212,2.212,0,0,1-1.051.266,2.181,2.181,0,0,1-.591-.081A2.133,2.133,0,0,1,1,16.343L.286,15.151a2.018,2.018,0,0,1-.212-1.577,2.068,2.068,0,0,1,1-1.261A2.091,2.091,0,0,0,2.146,10.5,2.089,2.089,0,0,0,1.07,8.692,2.07,2.07,0,0,1,.286,5.84l.753-1.2A2.173,2.173,0,0,1,2.9,3.594a2.21,2.21,0,0,1,1.069.276A2.1,2.1,0,0,0,5,4.15,2.132,2.132,0,0,0,7.152,2.09,2.043,2.043,0,0,1,7.775.615,2.171,2.171,0,0,1,9.294,0h1.412a2.176,2.176,0,0,1,1.541.637,2.05,2.05,0,0,1,.606,1.513,1.986,1.986,0,0,0,.292,1,2.149,2.149,0,0,0,1.306.959,2.264,2.264,0,0,0,.541.066,2.189,2.189,0,0,0,1.083-.286,2.208,2.208,0,0,1,1.068-.276A2.173,2.173,0,0,1,19.01,4.662l.7,1.178v.009a2.072,2.072,0,0,1-.783,2.843,2.078,2.078,0,0,0-.779.756,2.033,2.033,0,0,0-.221,1.588,2.1,2.1,0,0,0,1,1.264,2.085,2.085,0,0,1,1,1.269,2.013,2.013,0,0,1-.217,1.582l-.739,1.2a2.193,2.193,0,0,1-2.935.761A2.234,2.234,0,0,0,15,16.833h-.016a2.175,2.175,0,0,0-1.507.607,2.067,2.067,0,0,0-.628,1.483A2.121,2.121,0,0,1,10.706,21ZM10,7.621A2.88,2.88,0,1,0,12.968,10.5,2.926,2.926,0,0,0,10,7.621Z" fill="#b4b4b4"/>
  </g>
</svg>
