<svg xmlns="http://www.w3.org/2000/svg" xmlns:xlink="http://www.w3.org/1999/xlink" width="20" height="20" viewBox="0 0 20 20">
  <defs>
    <clipPath id="clip-path">
      <rect id="Rectangle_59" data-name="Rectangle 59" width="20" height="20" transform="translate(677 826)" fill="gray" stroke="#707070" stroke-width="1"/>
    </clipPath>
  </defs>
  <g id="lock" transform="translate(-677 -826)" clip-path="url(#clip-path)">
    <path id="padlock_3_" data-name="padlock (3)" d="M16.125,7.5H15.5V5a5,5,0,0,0-10,0V7.5H4.875A1.877,1.877,0,0,0,3,9.375v8.75A1.877,1.877,0,0,0,4.875,20h11.25A1.877,1.877,0,0,0,18,18.125V9.375A1.877,1.877,0,0,0,16.125,7.5ZM7.167,5a3.333,3.333,0,1,1,6.667,0V7.5H7.167Zm4.167,8.935v1.9a.833.833,0,0,1-1.667,0v-1.9a1.667,1.667,0,1,1,1.667,0Z" transform="translate(676.5 826)" fill="gray"/>
  </g>
</svg>
