<svg xmlns="http://www.w3.org/2000/svg" xmlns:xlink="http://www.w3.org/1999/xlink" width="20" height="20" viewBox="0 0 20 20">
  <defs>
    <clipPath id="clip-path">
      <rect id="Rectangle_711" data-name="Rectangle 711" width="20" height="20" transform="translate(746 6953)" fill="#fff" stroke="#707070" stroke-width="1"/>
    </clipPath>
  </defs>
  <g id="Mask_Group_137" data-name="Mask Group 137" transform="translate(-746 -6953)" clip-path="url(#clip-path)">
    <g id="Iconly_Bold_Document" data-name="Iconly/Bold/Document" transform="translate(744.287 6951.224)">
      <g id="Document" transform="translate(3 2)">
        <path id="Document-2" data-name="Document" d="M12.77,19.362H4.656C1.7,19.362,0,17.654,0,14.676v-10A4.753,4.753,0,0,1,1.225,1.231,4.708,4.708,0,0,1,4.656,0H12.77c2.958,0,4.655,1.7,4.655,4.676v10a4.735,4.735,0,0,1-1.206,3.468A4.665,4.665,0,0,1,12.77,19.362ZM4.839,13.3a.755.755,0,0,0-.647.362.761.761,0,0,0,.632,1.168.678.678,0,0,0,.094-.006h7.591a.765.765,0,0,0,0-1.52H4.917A.774.774,0,0,0,4.839,13.3Zm.079-4.412a.755.755,0,0,0,0,1.511h7.591a.755.755,0,0,0,0-1.511Zm0-4.384v.01h0a.754.754,0,0,0,0,1.509H7.812a.76.76,0,0,0,0-1.52Z" transform="translate(0 0)" fill="gray"/>
      </g>
    </g>
  </g>
</svg>
