<svg xmlns="http://www.w3.org/2000/svg" xmlns:xlink="http://www.w3.org/1999/xlink" width="48" height="48" viewBox="0 0 48 48">
  <defs>
    <clipPath id="clip-path">
      <rect id="Rectangle_421" data-name="Rectangle 421" width="48" height="48" transform="translate(1139 280)" fill="#b7b7b7"/>
    </clipPath>
    <linearGradient id="linear-gradient" x1="0.295" y1="0.211" x2="0.966" y2="1.156" gradientUnits="objectBoundingBox">
      <stop offset="0" stop-color="#0b799d"/>
      <stop offset="1" stop-color="#07485e"/>
    </linearGradient>
    <linearGradient id="linear-gradient-2" x1="0.877" y1="1.054" x2="0.001" y2="-0.233" xlink:href="#linear-gradient"/>
    <linearGradient id="linear-gradient-3" x1="0.715" y1="0.72" x2="0.347" y2="-0.039" gradientUnits="objectBoundingBox">
      <stop offset="0" stop-color="#07485e" stop-opacity="0"/>
      <stop offset="1" stop-color="#03232e"/>
    </linearGradient>
    <linearGradient id="linear-gradient-4" x1="0.242" y1="0.106" x2="0.758" y2="0.894" gradientUnits="objectBoundingBox">
      <stop offset="0" stop-color="#edf5ff"/>
      <stop offset="1" stop-color="#d5e8fe"/>
    </linearGradient>
    <linearGradient id="linear-gradient-5" x1="-0.103" y1="-0.016" x2="1.245" y2="1.138" gradientUnits="objectBoundingBox">
      <stop offset="0" stop-color="#b9dd39"/>
      <stop offset="1" stop-color="#0b799d"/>
    </linearGradient>
    <linearGradient id="linear-gradient-6" x1="1.25" y1="1.25" x2="-0.457" y2="-0.457" xlink:href="#linear-gradient"/>
    <linearGradient id="linear-gradient-7" x1="1.25" y1="-295.109" x2="-0.457" y2="-296.816" xlink:href="#linear-gradient"/>
    <linearGradient id="linear-gradient-8" x1="0.257" y1="0.257" x2="1.34" y2="1.34" xlink:href="#linear-gradient-5"/>
    <linearGradient id="linear-gradient-9" x1="0.667" y1="0.694" x2="0.351" y2="-0.343" gradientUnits="objectBoundingBox">
      <stop offset="0" stop-color="#b5dbff" stop-opacity="0"/>
      <stop offset="0.173" stop-color="#8fc5e9" stop-opacity="0.173"/>
      <stop offset="0.454" stop-color="#56a4c8" stop-opacity="0.455"/>
      <stop offset="0.696" stop-color="#2d8db1" stop-opacity="0.694"/>
      <stop offset="0.885" stop-color="#147ea2" stop-opacity="0.886"/>
      <stop offset="1" stop-color="#0b799d"/>
    </linearGradient>
    <linearGradient id="linear-gradient-10" x1="0.213" y1="0.257" x2="0.681" y2="1.068" gradientUnits="objectBoundingBox">
      <stop offset="0" stop-color="#edf5ff"/>
      <stop offset="1" stop-color="#b5dbff"/>
    </linearGradient>
    <linearGradient id="linear-gradient-11" x1="0.5" y1="0.807" x2="0.5" y2="-1.537" gradientUnits="objectBoundingBox">
      <stop offset="0" stop-color="#b5dbff" stop-opacity="0"/>
      <stop offset="0.243" stop-color="#93cef6" stop-opacity="0.243"/>
      <stop offset="0.576" stop-color="#6abfec" stop-opacity="0.576"/>
      <stop offset="0.84" stop-color="#51b5e5" stop-opacity="0.839"/>
      <stop offset="1" stop-color="#48b2e3"/>
    </linearGradient>
    <linearGradient id="linear-gradient-12" x1="0.236" y1="0.176" x2="0.679" y2="0.719" gradientUnits="objectBoundingBox">
      <stop offset="0" stop-color="#ffda2d"/>
      <stop offset="1" stop-color="#fdbf00"/>
    </linearGradient>
    <linearGradient id="linear-gradient-13" x1="1.005" y1="0.82" x2="-0.148" y2="-0.003" xlink:href="#linear-gradient-12"/>
    <linearGradient id="linear-gradient-14" x1="1.035" y1="0.797" x2="-0.186" y2="0.005" xlink:href="#linear-gradient"/>
    <linearGradient id="linear-gradient-15" x1="0.5" y1="0.526" x2="0.5" y2="1.018" gradientUnits="objectBoundingBox">
      <stop offset="0" stop-color="#ff9100" stop-opacity="0"/>
      <stop offset="1" stop-color="#ff9100"/>
    </linearGradient>
  </defs>
  <g id="password" transform="translate(-1139 -280)" clip-path="url(#clip-path)">
    <g id="privacy" transform="translate(1141.113 280)">
      <g id="Group_2557" data-name="Group 2557" transform="translate(0 16.933)">
        <g id="Group_2556" data-name="Group 2556">
          <g id="Group_2555" data-name="Group 2555">
            <g id="Group_2554" data-name="Group 2554">
              <path id="Path_1044" data-name="Path 1044" d="M42.668,44.472H4.452a2.779,2.779,0,0,1-2.779-2.779V16.185a2.779,2.779,0,0,1,2.779-2.779H42.668a2.779,2.779,0,0,1,2.779,2.779V41.693A2.779,2.779,0,0,1,42.668,44.472Z" transform="translate(-1.673 -13.406)" fill="url(#linear-gradient)"/>
              <path id="Path_1045" data-name="Path 1045" d="M40.728,42H5.526a2.209,2.209,0,0,1-2.209-2.209V17.237a2.209,2.209,0,0,1,2.209-2.209h35.2a2.209,2.209,0,0,1,2.209,2.209v22.55A2.209,2.209,0,0,1,40.728,42Z" transform="translate(-1.24 -12.979)" fill="url(#linear-gradient-2)"/>
              <path id="Path_1046" data-name="Path 1046" d="M42.737,41.693V26.415L29.728,13.406H11.971v3.715a1.914,1.914,0,0,0,.767,1.534L38.556,44.472h1.4A2.779,2.779,0,0,0,42.737,41.693Z" transform="translate(1.038 -13.405)" fill="url(#linear-gradient-3)"/>
              <path id="Path_1047" data-name="Path 1047" d="M39.379,40.387H6.348a2.029,2.029,0,0,1-2.029-2.029V18.111a2.029,2.029,0,0,1,2.029-2.029H39.379a2.029,2.029,0,0,1,2.029,2.029V38.358A2.029,2.029,0,0,1,39.379,40.387Z" transform="translate(-0.976 -12.701)" fill="url(#linear-gradient-4)"/>
              <g id="Group_2553" data-name="Group 2553" transform="translate(5.707 8.99)">
                <path id="Path_1048" data-name="Path 1048" d="M16.278,33.609H7.317A1.127,1.127,0,0,1,6.19,32.482V21.65a1.127,1.127,0,0,1,1.127-1.127h8.961a1.127,1.127,0,0,1,1.127,1.127V32.482A1.127,1.127,0,0,1,16.278,33.609Z" transform="translate(-6.19 -20.523)" fill="url(#linear-gradient-5)"/>
                <g id="Group_2552" data-name="Group 2552" transform="translate(13.461 0)">
                  <g id="Group_2549" data-name="Group 2549" transform="translate(0)">
                    <path id="Path_1049" data-name="Path 1049" d="M23.808,23.784H17.662a.815.815,0,0,1-.815-.815V21.338a.815.815,0,0,1,.815-.815h6.145a.815.815,0,0,1,.815.815v1.631A.815.815,0,0,1,23.808,23.784Z" transform="translate(-16.847 -20.523)" fill="#b5dbff"/>
                    <path id="Path_1050" data-name="Path 1050" d="M32.929,23.784H25.273a.815.815,0,0,1-.815-.815V21.338a.815.815,0,0,1,.815-.815h7.656a.815.815,0,0,1,.815.815v1.631A.816.816,0,0,1,32.929,23.784Z" transform="translate(-14.844 -20.523)" fill="#b5dbff"/>
                  </g>
                  <g id="Group_2550" data-name="Group 2550" transform="translate(0 4.913)">
                    <path id="Path_1051" data-name="Path 1051" d="M28.9,27.673h3.073a.815.815,0,0,0,.815-.815V25.227a.815.815,0,0,0-.815-.815H28.9a.815.815,0,0,0-.815.815v1.631A.815.815,0,0,0,28.9,27.673Z" transform="translate(-13.889 -24.412)" fill="#b5dbff"/>
                    <path id="Path_1052" data-name="Path 1052" d="M17.662,27.673H28.391a.815.815,0,0,0,.815-.815V25.227a.815.815,0,0,0-.815-.815H17.662a.815.815,0,0,0-.815.815v1.631A.816.816,0,0,0,17.662,27.673Z" transform="translate(-16.847 -24.412)" fill="#b5dbff"/>
                  </g>
                  <g id="Group_2551" data-name="Group 2551" transform="translate(0 9.825)">
                    <path id="Path_1053" data-name="Path 1053" d="M23.808,31.562H17.662a.815.815,0,0,1-.815-.815V29.116a.815.815,0,0,1,.815-.815h6.145a.815.815,0,0,1,.815.815v1.631A.815.815,0,0,1,23.808,31.562Z" transform="translate(-16.847 -28.301)" fill="#b5dbff"/>
                    <path id="Path_1054" data-name="Path 1054" d="M32.929,31.562H25.273a.815.815,0,0,1-.815-.815V29.116a.815.815,0,0,1,.815-.815h7.656a.815.815,0,0,1,.815.815v1.631A.815.815,0,0,1,32.929,31.562Z" transform="translate(-14.844 -28.301)" fill="#b5dbff"/>
                  </g>
                </g>
              </g>
              <circle id="Ellipse_66" data-name="Ellipse 66" cx="0.849" cy="0.849" r="0.849" transform="translate(21.038 1.2)" fill="url(#linear-gradient-6)"/>
              <circle id="Ellipse_67" data-name="Ellipse 67" cx="0.533" cy="0.533" r="0.533" transform="translate(21.355 1.516)" fill="url(#linear-gradient-7)"/>
            </g>
          </g>
        </g>
        <path id="Path_1055" data-name="Path 1055" d="M6.01,37.756H5.379a.655.655,0,0,1-.655-.655V36.47a.655.655,0,0,1,.655-.655H6.01a.655.655,0,0,1,.655.655V37.1A.655.655,0,0,1,6.01,37.756Z" transform="translate(-0.869 -7.508)" fill="url(#linear-gradient-8)"/>
      </g>
      <g id="Group_2558" data-name="Group 2558" transform="translate(6.754 27.27)">
        <circle id="Ellipse_68" data-name="Ellipse 68" cx="3.541" cy="3.541" r="3.541" transform="translate(1.007)" fill="#07485e"/>
        <path id="Path_1056" data-name="Path 1056" d="M16.025,29.529a.449.449,0,0,1-.3.746c-1.056.09-2.453.145-3.987.145-1.7,0-3.228-.067-4.313-.175a.448.448,0,0,1-.294-.743l.006-.006a5.957,5.957,0,0,1,8.82-.04l.066.073Z" transform="translate(-7.02 -20.027)" fill="#07485e"/>
      </g>
      <path id="Path_1057" data-name="Path 1057" d="M33.069,16.082H12.12v.334A1.775,1.775,0,0,0,12.7,17.95L35.136,40.387h2.19a2.029,2.029,0,0,0,2.029-2.029V22.368Z" transform="translate(1.077 4.232)" fill="url(#linear-gradient-9)"/>
      <g id="Group_2562" data-name="Group 2562" transform="translate(13.009)">
        <g id="Group_2559" data-name="Group 2559" transform="translate(1.044)">
          <path id="Path_1058" data-name="Path 1058" d="M27.9,8.71H25.156V7.55a4.808,4.808,0,0,0-9.617,0V8.71H12.8V7.55a7.55,7.55,0,1,1,15.1,0Z" transform="translate(-12.798)" fill="url(#linear-gradient-10)"/>
          <path id="Path_1059" data-name="Path 1059" d="M20.08,1.175a6.27,6.27,0,0,0-6.263,6.263V8.4h1.455V7.241a4.808,4.808,0,0,1,9.617,0V8.4h1.455V7.439A6.271,6.271,0,0,0,20.08,1.175Z" transform="translate(-12.53 0.309)" fill="url(#linear-gradient-11)"/>
        </g>
        <g id="Group_2561" data-name="Group 2561" transform="translate(0 8.078)">
          <g id="Group_2560" data-name="Group 2560">
            <path id="Path_1060" data-name="Path 1060" d="M27.812,20.883H13.888a1.917,1.917,0,0,1-1.917-1.917V8.312a1.917,1.917,0,0,1,1.917-1.917H27.812a1.917,1.917,0,0,1,1.917,1.917V18.966A1.917,1.917,0,0,1,27.812,20.883Z" transform="translate(-11.971 -6.395)" fill="url(#linear-gradient-12)"/>
            <path id="Path_1061" data-name="Path 1061" d="M23.113,11.758a3.4,3.4,0,1,0-4.93,3.042v1.566a1.526,1.526,0,1,0,3.053,0V14.8a3.4,3.4,0,0,0,1.877-3.042Z" transform="translate(-10.83 -5.879)" fill="url(#linear-gradient-13)"/>
            <path id="Path_1062" data-name="Path 1062" d="M19.525,16.823a.642.642,0,0,1-.642-.642V14.07l-.487-.245a2.519,2.519,0,1,1,2.258,0l-.487.245v2.112A.642.642,0,0,1,19.525,16.823Z" transform="translate(-10.646 -5.695)" fill="url(#linear-gradient-14)"/>
            <path id="Path_1063" data-name="Path 1063" d="M11.971,14.05v2.9a1.917,1.917,0,0,0,1.917,1.917H27.812a1.917,1.917,0,0,0,1.917-1.917v-2.9Z" transform="translate(-11.971 -4.38)" fill="url(#linear-gradient-15)"/>
          </g>
        </g>
      </g>
    </g>
  </g>
</svg>
