<svg xmlns="http://www.w3.org/2000/svg" xmlns:xlink="http://www.w3.org/1999/xlink" width="20" height="20" viewBox="0 0 20 20">
  <defs>
    <clipPath id="clip-path">
      <rect id="Rectangle_732" data-name="Rectangle 732" width="20" height="20" transform="translate(18 731)" fill="#fff" stroke="#707070" stroke-width="1"/>
    </clipPath>
  </defs>
  <g id="share_icon" data-name="share icon" transform="translate(-18 -731)" clip-path="url(#clip-path)">
    <g id="share" transform="translate(18.833 731)">
      <path id="Path_1371" data-name="Path 1371" d="M17.708,3.333A2.708,2.708,0,1,1,15,.625a2.708,2.708,0,0,1,2.708,2.708Zm0,0"/>
      <path id="Path_1372" data-name="Path 1372" d="M15,6.667a3.333,3.333,0,1,1,3.333-3.333A3.337,3.337,0,0,1,15,6.667ZM15,1.25a2.083,2.083,0,1,0,2.083,2.083A2.086,2.086,0,0,0,15,1.25Zm0,0"/>
      <path id="Path_1373" data-name="Path 1373" d="M17.708,16.667A2.708,2.708,0,1,1,15,13.958,2.708,2.708,0,0,1,17.708,16.667Zm0,0"/>
      <path id="Path_1374" data-name="Path 1374" d="M15,20a3.333,3.333,0,1,1,3.333-3.333A3.337,3.337,0,0,1,15,20Zm0-5.417a2.083,2.083,0,1,0,2.083,2.083A2.086,2.086,0,0,0,15,14.583Zm0,0"/>
      <path id="Path_1375" data-name="Path 1375" d="M6.042,10A2.708,2.708,0,1,1,3.333,7.292,2.708,2.708,0,0,1,6.042,10Zm0,0"/>
      <path id="Path_1376" data-name="Path 1376" d="M3.333,13.333A3.333,3.333,0,1,1,6.667,10a3.337,3.337,0,0,1-3.333,3.333Zm0-5.417A2.083,2.083,0,1,0,5.417,10,2.086,2.086,0,0,0,3.333,7.917Zm0,0"/>
      <path id="Path_1377" data-name="Path 1377" d="M5.3,9.6a.833.833,0,0,1-.413-1.558L12.62,3.634a.833.833,0,1,1,.825,1.448L5.712,9.491A.828.828,0,0,1,5.3,9.6Zm0,0"/>
      <path id="Path_1378" data-name="Path 1378" d="M13.033,16.475a.828.828,0,0,1-.412-.109L4.888,11.958a.833.833,0,0,1,.825-1.448l7.733,4.408a.833.833,0,0,1-.413,1.558Zm0,0"/>
    </g>
  </g>
</svg>
