<svg xmlns="http://www.w3.org/2000/svg" xmlns:xlink="http://www.w3.org/1999/xlink" width="28" height="28" viewBox="0 0 28 28">
  <defs>
    <clipPath id="clip-path">
      <rect id="Rectangle_122" data-name="Rectangle 122" width="28" height="28" transform="translate(0.261 0.124)" fill="#169873" stroke="#707070" stroke-width="1"/>
    </clipPath>
  </defs>
  <g id="stock" transform="translate(-0.261 -0.124)" clip-path="url(#clip-path)">
    <path id="profit_1_" data-name="profit (1)" d="M2.81,4.7a1.09,1.09,0,0,1-.016-1.542L4.945.966,4.952.959a3.259,3.259,0,0,1,4.618,0l2.19,2.2A1.091,1.091,0,0,1,10.216,4.7L8.026,2.5A1.078,1.078,0,0,0,6.5,2.5L4.352,4.689A1.09,1.09,0,0,1,2.81,4.7Zm4.362-.4A1.091,1.091,0,0,0,6.081,5.4V8.833a1.091,1.091,0,1,0,2.181,0V5.4A1.091,1.091,0,0,0,7.171,4.308ZM14.8,6.543c0-2.14,2.4-3.817,5.453-3.817S25.71,4.4,25.71,6.543s-2.4,3.817-5.453,3.817S14.8,8.683,14.8,6.543Zm2.181,0a1.357,1.357,0,0,0,.765,1,4.864,4.864,0,0,0,2.507.633,4.864,4.864,0,0,0,2.507-.633,1.357,1.357,0,0,0,.765-1,1.357,1.357,0,0,0-.765-1,4.864,4.864,0,0,0-2.507-.633,4.864,4.864,0,0,0-2.507.633A1.357,1.357,0,0,0,16.986,6.543Zm6.939,18.092a6.869,6.869,0,0,1-7.445,0A1.091,1.091,0,1,0,15.2,26.4a8.564,8.564,0,0,0,5,1.516,8.564,8.564,0,0,0,5-1.516,1.091,1.091,0,1,0-1.279-1.766Zm0-4.362a6.869,6.869,0,0,1-7.445,0A1.091,1.091,0,1,0,15.2,22.039a8.564,8.564,0,0,0,5,1.516,8.564,8.564,0,0,0,5-1.516,1.091,1.091,0,1,0-1.279-1.766Zm0-4.417a6.869,6.869,0,0,1-7.445,0A1.091,1.091,0,1,0,15.2,17.623a8.564,8.564,0,0,0,5,1.516,8.564,8.564,0,0,0,5-1.516,1.091,1.091,0,1,0-1.279-1.766Zm0-4.417a6.869,6.869,0,0,1-7.445,0A1.091,1.091,0,1,0,15.2,13.206a8.564,8.564,0,0,0,5,1.516,8.564,8.564,0,0,0,5-1.516,1.091,1.091,0,1,0-1.279-1.766Zm-11.3,3.937c0,2.14-2.4,3.817-5.453,3.817s-5.453-1.677-5.453-3.817,2.4-3.817,5.453-3.817S12.624,13.236,12.624,15.376Zm-2.181,0a1.357,1.357,0,0,0-.765-1,4.864,4.864,0,0,0-2.507-.633,4.864,4.864,0,0,0-2.507.633,1.357,1.357,0,0,0-.765,1,1.357,1.357,0,0,0,.765,1,4.864,4.864,0,0,0,2.507.633,4.864,4.864,0,0,0,2.507-.633A1.357,1.357,0,0,0,10.443,15.376Zm.4,9.259a6.869,6.869,0,0,1-7.445,0A1.091,1.091,0,1,0,2.115,26.4a8.564,8.564,0,0,0,5,1.516,8.564,8.564,0,0,0,5-1.516,1.091,1.091,0,1,0-1.279-1.766Zm0-4.362a6.869,6.869,0,0,1-7.445,0,1.091,1.091,0,1,0-1.279,1.766,8.564,8.564,0,0,0,5,1.516,8.564,8.564,0,0,0,5-1.516,1.091,1.091,0,1,0-1.279-1.766Z" transform="translate(0.272 0)" fill="#169873"/>
  </g>
</svg>
