<svg xmlns="http://www.w3.org/2000/svg" xmlns:xlink="http://www.w3.org/1999/xlink" width="48" height="48" viewBox="0 0 48 48">
  <defs>
    <clipPath id="clip-path">
      <rect id="Rectangle_491" data-name="Rectangle 491" width="48" height="48" transform="translate(700 287)" fill="#b7b7b7"/>
    </clipPath>
    <linearGradient id="linear-gradient" x1="0.303" y1="0.303" x2="1.092" y2="1.092" gradientUnits="objectBoundingBox">
      <stop offset="0" stop-color="#eaf6ff"/>
      <stop offset="0.257" stop-color="#dce8fa"/>
      <stop offset="0.742" stop-color="#b8c4ed"/>
      <stop offset="1" stop-color="#a2aee6"/>
    </linearGradient>
    <linearGradient id="linear-gradient-2" x1="0.697" y1="0.697" x2="-0.312" y2="-0.312" xlink:href="#linear-gradient"/>
    <linearGradient id="linear-gradient-3" x1="0.532" y1="0.44" x2="-0.236" y2="0.129" gradientUnits="objectBoundingBox">
      <stop offset="0" stop-color="#8795de" stop-opacity="0"/>
      <stop offset="0.468" stop-color="#7d8ddc" stop-opacity="0.467"/>
      <stop offset="1" stop-color="#6c7fd8"/>
    </linearGradient>
    <linearGradient id="linear-gradient-4" x1="0.616" y1="0.696" x2="-0.261" y2="-0.048" xlink:href="#linear-gradient-3"/>
    <linearGradient id="linear-gradient-5" x1="0.777" y1="0.734" x2="-0.189" y2="-0.067" xlink:href="#linear-gradient-3"/>
    <linearGradient id="linear-gradient-6" x1="0.5" y1="0.588" x2="0.5" y2="1.003" gradientUnits="objectBoundingBox">
      <stop offset="0" stop-color="#fd4755"/>
      <stop offset="1" stop-color="#ac2538"/>
    </linearGradient>
    <linearGradient id="linear-gradient-8" x1="0.224" y1="0.348" x2="1.065" y2="0.81" xlink:href="#linear-gradient-6"/>
    <linearGradient id="linear-gradient-9" x1="0.504" y1="0.711" x2="-0.02" y2="1.07" gradientUnits="objectBoundingBox">
      <stop offset="0" stop-color="#972437" stop-opacity="0"/>
      <stop offset="1" stop-color="#972437"/>
    </linearGradient>
    <linearGradient id="linear-gradient-10" x1="0.287" y1="0.499" x2="-0.064" y2="1.014" xlink:href="#linear-gradient-9"/>
    <linearGradient id="linear-gradient-11" x1="0.5" y1="0.243" x2="0.5" y2="0.982" xlink:href="#linear-gradient-3"/>
  </defs>
  <g id="time" transform="translate(-700 -287)" clip-path="url(#clip-path)">
    <g id="_24-hours-delivery" data-name="24-hours-delivery" transform="translate(700 287)">
      <g id="Group_2635" data-name="Group 2635">
        <circle id="Ellipse_82" data-name="Ellipse 82" cx="20.181" cy="20.181" r="20.181" transform="translate(3.819 3.804)" fill="url(#linear-gradient)"/>
        <circle id="Ellipse_83" data-name="Ellipse 83" cx="17.102" cy="17.102" r="17.102" transform="translate(6.898 6.882)" fill="url(#linear-gradient-2)"/>
      </g>
      <g id="Group_2637" data-name="Group 2637">
        <path id="Path_1109" data-name="Path 1109" d="M24.6,35.367H23.4a.205.205,0,0,0-.205.205v4.06a.205.205,0,0,0,.205.205h1.2a.205.205,0,0,0,.205-.205v-4.06a.205.205,0,0,0-.205-.205Z" fill="#a2aee6"/>
        <path id="Path_1110" data-name="Path 1110" d="M24.6,8.132H23.4a.205.205,0,0,0-.205.205V12.4a.205.205,0,0,0,.205.205h1.2a.205.205,0,0,0,.205-.205V8.337A.205.205,0,0,0,24.6,8.132Z" fill="#8795de"/>
        <path id="Path_1111" data-name="Path 1111" d="M12.618,24.586v-1.2a.205.205,0,0,0-.205-.205H8.352a.205.205,0,0,0-.205.205v1.2a.205.205,0,0,0,.205.205h4.06A.205.205,0,0,0,12.618,24.586Z" fill="#8795de"/>
        <g id="Group_2636" data-name="Group 2636">
          <path id="Path_1112" data-name="Path 1112" d="M39.648,23.178h-4.06a.205.205,0,0,0-.205.205v1.2a.205.205,0,0,0,.205.205h4.06a.205.205,0,0,0,.205-.205v-1.2A.205.205,0,0,0,39.648,23.178Z" fill="#a2aee6"/>
          <path id="Path_1113" data-name="Path 1113" d="M15.526,31.608a.205.205,0,0,0-.29,0l-2.871,2.871a.205.205,0,0,0,0,.29l.85.85a.205.205,0,0,0,.29,0l2.871-2.871a.205.205,0,0,0,0-.29Z" fill="#a2aee6"/>
          <path id="Path_1114" data-name="Path 1114" d="M32.474,16.361a.205.205,0,0,0,.29,0l2.871-2.871a.205.205,0,0,0,0-.29l-.85-.85a.205.205,0,0,0-.29,0l-2.871,2.871a.205.205,0,0,0,0,.29Z" fill="#a2aee6"/>
        </g>
        <path id="Path_1115" data-name="Path 1115" d="M13.506,12.35a.205.205,0,0,0-.29,0l-.85.85a.205.205,0,0,0,0,.29l2.871,2.871a.205.205,0,0,0,.29,0l.85-.85a.205.205,0,0,0,0-.29Z" fill="#8795de"/>
        <path id="Path_1116" data-name="Path 1116" d="M32.764,31.608a.205.205,0,0,0-.29,0l-.85.85a.205.205,0,0,0,0,.29l2.871,2.871a.205.205,0,0,0,.29,0l.85-.85a.205.205,0,0,0,0-.29Z" fill="#a2aee6"/>
      </g>
      <path id="Path_1117" data-name="Path 1117" d="M24,3.8A20.118,20.118,0,0,0,9.686,9.76L38.224,38.3A20.18,20.18,0,0,0,24,3.8Z" fill="url(#linear-gradient-3)"/>
      <path id="Path_1118" data-name="Path 1118" d="M40.593,35.471,22.754,17.632a5.13,5.13,0,0,0-3.985-1.754c-2.379,0-4.716,1.461-4.716,4.006,0,.925.31,1.385.785,1.576a19.834,19.834,0,0,0,2.36,2.429c-1.678,1.233-3.395,2.542-3.395,4.216V30.13a.989.989,0,0,0,.654.816L27.391,43.88A20.182,20.182,0,0,0,40.593,35.471Z" fill="url(#linear-gradient-4)"/>
      <path id="Path_1119" data-name="Path 1119" d="M31.491,16.667a1.994,1.994,0,0,0-1.5-.788,1.465,1.465,0,0,0-1.356.835l-4.82,9.452a1.34,1.34,0,0,0-.167.626,1.059,1.059,0,0,0,.55,1L36.351,39.944a20.19,20.19,0,0,0,7.255-11.163Z" fill="url(#linear-gradient-5)"/>
      <g id="Group_2638" data-name="Group 2638">
        <path id="Path_1120" data-name="Path 1120" d="M23.63,20.2c0-2.8-2.441-4.319-4.862-4.319-2.379,0-4.716,1.461-4.716,4.006,0,1.315.626,1.69,1.461,1.69,1.064,0,1.711-.584,1.711-1.189a1.423,1.423,0,0,1,1.565-1.565A1.447,1.447,0,0,1,20.375,20.3c0,2.65-6.573,4.528-6.573,7.8V30.13c0,.605.835,1,1.419,1H22.65c.522,0,.981-.689.981-1.44s-.459-1.4-.981-1.4H17.183v-.188C17.183,26.207,23.63,24.725,23.63,20.2Z" fill="url(#linear-gradient-6)"/>
        <path id="Path_1121" data-name="Path 1121" d="M33.771,24.913h-.9V23.453c0-.689-.814-.981-1.627-.981s-1.627.292-1.627.981v1.461H27.825l3.693-7.407a1.02,1.02,0,0,0,.1-.4c0-.751-1.064-1.231-1.627-1.231a1.465,1.465,0,0,0-1.356.835l-4.82,9.452a1.339,1.339,0,0,0-.167.626,1.041,1.041,0,0,0,1.085,1.127h4.882V30.13c0,.668.814,1,1.627,1s1.627-.334,1.627-1V27.918h.9c.5,0,1-.751,1-1.5S34.439,24.913,33.771,24.913Z" fill="url(#linear-gradient-6)"/>
      </g>
      <path id="Path_1122" data-name="Path 1122" d="M40.971,7.013a23.83,23.83,0,0,0-15.7-7,1.2,1.2,0,1,0-.136,2.395A21.6,21.6,0,0,1,39.275,39.259,21.6,21.6,0,0,1,8.681,8.755l2.464,2.463a1.213,1.213,0,0,0,2.047-.615l1.725-8.421A1.213,1.213,0,0,0,13.484.75L5.063,2.475a1.213,1.213,0,0,0-.614,2.047L6.985,7.059a24,24,0,0,0,33.986,33.9,24,24,0,0,0,0-33.942Z" fill="url(#linear-gradient-8)"/>
      <path id="Path_1123" data-name="Path 1123" d="M14.829,2.608l-1.638,8a1.213,1.213,0,0,1-2.046.615L8.681,8.755Z" fill="url(#linear-gradient-9)"/>
      <path id="Path_1124" data-name="Path 1124" d="M13.244.8l-6.26,6.26L4.448,4.522a1.214,1.214,0,0,1,.615-2.048Z" fill="url(#linear-gradient-10)"/>
      <path id="Path_1125" data-name="Path 1125" d="M5.622,32.332a20.188,20.188,0,0,0,36.756,0Z" fill="url(#linear-gradient-11)"/>
    </g>
  </g>
</svg>
