<svg xmlns="http://www.w3.org/2000/svg" xmlns:xlink="http://www.w3.org/1999/xlink" width="20" height="20" viewBox="0 0 20 20">
  <defs>
    <clipPath id="clip-path">
      <rect id="Rectangle_54" data-name="Rectangle 54" width="20" height="20" transform="translate(651 756)" fill="#f46929" stroke="#f46929" stroke-width="1"/>
    </clipPath>
  </defs>
  <g id="view" transform="translate(-651 -756)" clip-path="url(#clip-path)">
    <g id="witness_1_" data-name="witness (1)" transform="translate(651 758)">
      <path id="Path_32" data-name="Path 32" d="M19.867,9.627A13.718,13.718,0,0,0,10,4.828a13.724,13.724,0,0,0-9.867,4.8.588.588,0,0,0,0,.746A13.7,13.7,0,0,0,10,15.172a13.732,13.732,0,0,0,9.867-4.8A.588.588,0,0,0,19.867,9.627ZM14,10a4,4,0,1,1-4-4A4,4,0,0,1,14,10ZM1.383,10a14.208,14.208,0,0,1,4.5-3.126,5.159,5.159,0,0,0,0,6.251A13.948,13.948,0,0,1,1.383,10Zm12.735,3.126a5.159,5.159,0,0,0,0-6.251A13.951,13.951,0,0,1,18.617,10,14.207,14.207,0,0,1,14.118,13.126Z" fill="#f46929"/>
      <path id="Path_33" data-name="Path 33" d="M8,10a2,2,0,1,0,2-2A2,2,0,0,0,8,10Zm2.824,0A.824.824,0,1,1,10,9.176.824.824,0,0,1,10.824,10Z" fill="#f46929"/>
      <path id="Path_34" data-name="Path 34" d="M10,2.549a.588.588,0,0,0,.588-.588V.588a.588.588,0,0,0-1.176,0V1.961A.588.588,0,0,0,10,2.549Z" fill="#f46929"/>
      <path id="Path_35" data-name="Path 35" d="M13.51,3.336a.588.588,0,0,0,.8-.22l.783-1.373a.588.588,0,1,0-1.022-.583L13.29,2.533A.588.588,0,0,0,13.51,3.336Z" fill="#f46929"/>
      <path id="Path_36" data-name="Path 36" d="M5.688,3.116A.588.588,0,0,0,6.71,2.533L5.927,1.161A.588.588,0,1,0,4.9,1.744Z" fill="#f46929"/>
    </g>
  </g>
</svg>
