<svg xmlns="http://www.w3.org/2000/svg" xmlns:xlink="http://www.w3.org/1999/xlink" width="28" height="28" viewBox="0 0 28 28">
  <defs>
    <clipPath id="clip-path">
      <rect id="Rectangle_119" data-name="Rectangle 119" width="28" height="28" transform="translate(-0.073 0.124)" fill="#3295f0" stroke="#707070" stroke-width="1"/>
    </clipPath>
  </defs>
  <g id="wallet" transform="translate(0.073 -0.124)" clip-path="url(#clip-path)">
    <path id="wallet-passes-app" d="M26.825,7.691a1.09,1.09,0,0,0,1.09-1.09V5.456A5.462,5.462,0,0,0,22.459,0S5.367,0,5.325.008A5.566,5.566,0,0,0,1.508,1.719a5.374,5.374,0,0,0-1.5,3.925c0,.028,0,15.727,0,15.727a6.554,6.554,0,0,0,6.546,6.546H22.459a5.462,5.462,0,0,0,5.456-5.456V14.183a5.462,5.462,0,0,0-5.456-5.456H5.454A3.265,3.265,0,0,1,2.186,5.612a3.214,3.214,0,0,1,.9-2.387,3.374,3.374,0,0,1,2.43-1.04l16.944,0a3.279,3.279,0,0,1,3.275,3.275V6.6a1.091,1.091,0,0,0,1.09,1.09ZM5.454,10.908H22.459a3.279,3.279,0,0,1,3.275,3.275v8.278a3.279,3.279,0,0,1-3.275,3.275H6.548a4.371,4.371,0,0,1-4.366-4.366V9.822a5.438,5.438,0,0,0,3.271,1.086Zm18.1,7.414a1.363,1.363,0,1,1-1.363-1.363A1.363,1.363,0,0,1,23.554,18.322Zm0-12.866a1.09,1.09,0,0,0-1.09-1.09H5.454a1.09,1.09,0,0,0,0,2.181h17.01A1.09,1.09,0,0,0,23.554,5.456Z" transform="translate(0 0)" fill="#3295f0"/>
  </g>
</svg>
